<svg xmlns="http://www.w3.org/2000/svg" viewBox="0 0 481 150" width="481" height="150">
  <rect width="480" height="150" fill="#FECE00"/>
  <g transform="translate(30,10) scale(0.5417)">
    <path d="M158.6,80.4L150.4,79.8L140.9,77.3L123.2,68.4L101.0,60.8L91.5,60.2L81.4,62.7L80.1,64.0L77.6,64.0L71.9,60.8L62.7,51.0L58.9,42.1L58.3,30.7L62.1,19.3L63.6,17.7L64.6,18.7L65.2,26.3L66.5,30.1L68.1,31.0L70.3,18.7L74.1,12.3L79.5,7.0L89.6,1.9L104.2,-0.0L114.9,1.3L118.4,2.8L110.5,5.1L102.3,9.5L95.6,16.1L93.4,20.9L108.0,13.3L121.3,12.7L130.1,15.2L148.5,24.7L156.7,27.2L164.3,27.9L176.0,25.6L173.5,30.1L166.2,36.1L159.3,38.6L151.7,38.6L150.7,39.6L156.7,42.4L171.3,45.0L182.1,43.7L192.8,39.3L203.0,31.0L203.3,33.9L199.5,45.9L195.7,52.2L189.7,58.9L186.5,61.4L175.1,66.5L158.9,68.1L170.0,72.2L181.7,72.5L172.6,77.9L158.6,80.4Z" fill="#0A0A0A"/>
    <path fill-rule="evenodd" d="M81.4,240.0L68.1,230.5L50.7,213.7L38.0,195.4L41.8,184.0L43.4,171.0L51.9,183.3L57.6,196.6L55.7,187.8L50.7,174.5L45.0,165.6L36.7,156.7L36.7,123.2L52.9,117.2L64.3,111.5L78.8,102.0L94.7,88.7L103.5,96.9L121.3,109.6L135.8,117.2L152.0,123.2L152.0,156.7L143.7,165.6L138.0,174.5L130.4,197.9L131.7,197.3L133.6,190.3L138.7,180.2L145.3,171.0L146.9,183.3L150.7,196.0L137.1,214.7L120.0,231.1L107.3,239.4L114.6,167.5L136.1,154.8L140.6,135.2L100.7,155.5L105.1,180.2L94.0,189.3L83.6,180.2L88.0,155.5L49.1,134.9L48.8,138.4L52.6,154.8L74.1,167.5L81.4,240.0Z M147.9,116.5L139.0,113.4L121.3,103.9L107.3,93.7L94.7,81.7L83.9,91.8L66.8,104.5L48.4,114.0L41.5,116.5L40.5,115.6L42.4,106.1L46.2,96.6L51.3,89.0L57.9,82.3L67.4,76.0L77.6,72.2L83.9,82.3L81.1,63.6L89.6,60.8L99.7,60.8L107.7,63.6L104.5,82.0L106.4,80.7L111.1,72.2L118.7,74.7L130.1,81.7L137.4,89.0L142.5,96.6L146.3,106.1L147.9,116.5Z" fill="#0A0A0A"/>
  </g>
  <g transform="translate(184,96)"><path transform="translate(0.0,0) scale(0.0580,-0.0580)" d="M70 0V700H268V157H602V0Z" fill="#0A0A0A"/><path transform="translate(35.4,0) scale(0.0580,-0.0580)" d="M393 -14Q238 -14 151.0 71.0Q64 156 64 312V700H262V318Q262 228 297.5 189.0Q333 150 395 150Q457 150 492.0 189.0Q527 228 527 318V700H722V312Q722 156 635.0 71.0Q548 -14 393 -14Z" fill="#0A0A0A"/><path transform="translate(81.0,0) scale(0.0580,-0.0580)" d="M70 0V700H401Q517 700 605.0 657.0Q693 614 742.5 536.0Q792 458 792 350Q792 243 742.5 164.5Q693 86 605.0 43.0Q517 0 401 0ZM268 158H393Q453 158 497.5 180.5Q542 203 567.0 246.5Q592 290 592 350Q592 411 567.0 454.0Q542 497 497.5 519.5Q453 542 393 542H268Z" fill="#0A0A0A"/><path transform="translate(128.9,0) scale(0.0580,-0.0580)" d="M393 -14Q238 -14 151.0 71.0Q64 156 64 312V700H262V318Q262 228 297.5 189.0Q333 150 395 150Q457 150 492.0 189.0Q527 228 527 318V700H722V312Q722 156 635.0 71.0Q548 -14 393 -14Z" fill="#0A0A0A"/><path transform="translate(174.5,0) scale(0.0580,-0.0580)" d="M35 0V124L447 613L471 543H44V700H647V576L235 87L211 157H662V0Z" fill="#0A0A0A"/><path transform="translate(213.8,0) scale(0.0580,-0.0580)" d="M423 -14Q339 -14 268.0 13.0Q197 40 144.5 89.5Q92 139 63.0 205.0Q34 271 34 350Q34 429 63.0 495.0Q92 561 144.5 610.5Q197 660 268.0 687.0Q339 714 423 714Q508 714 578.5 687.0Q649 660 701.0 610.5Q753 561 782.5 495.0Q812 429 812 350Q812 271 782.5 204.5Q753 138 701.0 89.0Q649 40 578.5 13.0Q508 -14 423 -14ZM423 150Q463 150 497.5 164.0Q532 178 557.5 204.5Q583 231 597.5 268.0Q612 305 612 350Q612 396 597.5 432.5Q583 469 557.5 495.5Q532 522 497.5 536.0Q463 550 423 550Q383 550 348.5 536.0Q314 522 288.5 495.5Q263 469 248.5 432.5Q234 396 234 350Q234 305 248.5 268.0Q263 231 288.5 204.5Q314 178 348.5 164.0Q383 150 423 150Z" fill="#0A0A0A"/></g>
</svg>