<svg xmlns="http://www.w3.org/2000/svg" viewBox="0 0 240 240" width="240" height="240">
  <path d="M152.2,87.0L145.3,86.5L137.4,84.4L122.6,77.0L104.2,70.7L96.3,70.1L87.8,72.2L86.8,73.3L84.6,73.3L79.9,70.7L72.2,62.5L69.1,55.1L68.5,45.6L71.7,36.1L73.0,34.8L73.8,35.6L74.4,41.9L75.4,45.1L76.7,45.9L78.6,35.6L81.7,30.3L86.2,25.8L94.7,21.6L106.8,20.0L115.8,21.1L118.7,22.4L112.1,24.2L105.2,27.9L99.7,33.5L97.8,37.4L110.0,31.1L121.1,30.6L128.4,32.7L143.7,40.6L150.6,42.7L156.9,43.2L166.7,41.4L164.6,45.1L158.5,50.1L152.7,52.2L146.4,52.2L145.6,53.0L150.6,55.4L162.7,57.5L171.7,56.4L180.7,52.7L189.1,45.9L189.4,48.2L186.2,58.3L183.1,63.5L178.0,69.1L175.4,71.2L165.9,75.4L152.5,76.7L161.7,80.2L171.5,80.4L163.8,84.9L152.2,87.0Z" fill="#0A0A0A"/>
  <path fill-rule="evenodd" d="M87.8,220.0L76.7,212.1L62.2,198.1L51.7,182.8L54.8,173.3L56.1,162.5L63.3,172.8L68.0,183.9L66.4,176.5L62.2,165.4L57.5,158.0L50.6,150.6L50.6,122.6L64.1,117.6L73.6,112.9L85.7,105.0L98.9,93.9L106.3,100.7L121.1,111.3L133.2,117.6L146.6,122.6L146.6,150.6L139.8,158.0L135.0,165.4L128.7,184.9L129.8,184.4L131.3,178.6L135.6,170.1L141.1,162.5L142.4,172.8L145.6,183.3L134.2,198.9L120.0,212.6L109.4,219.5L115.5,159.6L133.5,149.0L137.2,132.7L103.9,149.6L107.6,170.1L98.4,177.8L89.7,170.1L93.4,149.6L60.9,132.4L60.6,135.3L63.8,149.0L81.7,159.6L87.8,220.0Z M143.2,117.1L135.8,114.5L121.1,106.5L109.4,98.1L98.9,88.1L89.9,96.5L75.7,107.1L60.4,115.0L54.6,117.1L53.8,116.3L55.4,108.4L58.5,100.5L62.7,94.1L68.3,88.6L76.2,83.3L84.6,80.2L89.9,88.6L87.5,73.0L94.7,70.7L103.1,70.7L109.7,73.0L107.1,88.3L108.7,87.3L112.6,80.2L118.9,82.3L128.4,88.1L134.5,94.1L138.7,100.5L141.9,108.4L143.2,117.1Z" fill="#0A0A0A"/>
</svg>