<svg xmlns="http://www.w3.org/2000/svg" viewBox="0 0 240 240" width="240" height="240">
  <rect width="240" height="240" rx="54" fill="#FECE00"/>
  <g transform="translate(0,8)">
    <path d="M144.1,95.3L139.0,94.9L133.1,93.3L122.0,87.7L108.1,83.0L102.2,82.6L95.9,84.2L95.1,85.0L93.5,85.0L89.9,83.0L84.2,76.9L81.8,71.3L81.4,64.2L83.8,57.1L84.8,56.1L85.4,56.7L85.8,61.4L86.6,63.8L87.5,64.4L88.9,56.7L91.3,52.7L94.7,49.4L101.0,46.2L110.1,45.0L116.8,45.8L119.0,46.8L114.1,48.2L108.9,50.9L104.8,55.1L103.4,58.1L112.5,53.3L120.8,52.9L126.3,54.5L137.8,60.4L143.0,62.0L147.7,62.4L155.0,61.0L153.4,63.8L148.9,67.6L144.5,69.1L139.8,69.1L139.2,69.7L143.0,71.5L152.1,73.1L158.8,72.3L165.5,69.5L171.8,64.4L172.0,66.2L169.7,73.7L167.3,77.7L163.5,81.8L161.6,83.4L154.4,86.6L144.3,87.5L151.3,90.1L158.6,90.3L152.8,93.7L144.1,95.3Z" fill="#0A0A0A"/>
    <path fill-rule="evenodd" d="M95.9,195.0L87.5,189.1L76.7,178.6L68.7,167.1L71.1,160.0L72.1,151.9L77.5,159.6L81.0,167.9L79.8,162.3L76.7,154.0L73.1,148.5L68.0,143.0L68.0,122.0L78.0,118.2L85.2,114.7L94.3,108.7L104.2,100.4L109.7,105.6L120.8,113.5L129.9,118.2L140.0,122.0L140.0,143.0L134.8,148.5L131.3,154.0L126.5,168.7L127.3,168.3L128.5,163.9L131.7,157.6L135.8,151.9L136.8,159.6L139.2,167.5L130.7,179.2L120.0,189.5L112.1,194.6L116.6,149.7L130.1,141.8L132.9,129.5L107.9,142.2L110.7,157.6L103.8,163.3L97.2,157.6L100.0,142.2L75.7,129.3L75.5,131.5L77.8,141.8L91.3,149.7L95.9,195.0Z M137.4,117.8L131.9,115.8L120.8,109.9L112.1,103.6L104.2,96.1L97.4,102.4L86.8,110.3L75.3,116.2L70.9,117.8L70.3,117.2L71.5,111.3L73.9,105.4L77.1,100.6L81.2,96.5L87.2,92.5L93.5,90.1L97.4,96.5L95.7,84.8L101.0,83.0L107.3,83.0L112.3,84.8L110.3,96.3L111.5,95.5L114.5,90.1L119.2,91.7L126.3,96.1L130.9,100.6L134.1,105.4L136.4,111.3L137.4,117.8Z" fill="#0A0A0A"/>
  </g>
</svg>